<svg xmlns="http://www.w3.org/2000/svg" width="17.923" height="17.923" viewBox="0 0 17.923 17.923">
    <path id="prefix__ic_extension_24px" fill="#fff" d="M17.789 9.535h-1.28V6.121A1.712 1.712 0 0 0 14.8 4.414h-3.412v-1.28a2.134 2.134 0 1 0-4.267 0v1.28H3.707a1.7 1.7 0 0 0-1.7 1.707v3.243H3.28a2.3 2.3 0 0 1 0 4.609H2v3.243a1.712 1.712 0 0 0 1.707 1.707H6.95v-1.28a2.3 2.3 0 0 1 4.609 0v1.28H14.8a1.712 1.712 0 0 0 1.707-1.707V13.8h1.28a2.134 2.134 0 1 0 0-4.267z" opacity="0.498" transform="translate(-2 -1)"/>
</svg>
