<svg xmlns="http://www.w3.org/2000/svg" width="15.362" height="15.362" viewBox="0 0 15.362 15.362">
    <path id="prefix__ic_border_clear_24px" fill="#fff" d="M6.414 4.707h1.707V3H6.414zm0 6.828h1.707V9.828H6.414zm0 6.828h1.707v-1.708H6.414zm3.414-3.414h1.707v-1.708H9.828zm0 3.414h1.707v-1.708H9.828zM3 18.362h1.707v-1.707H3zm0-3.414h1.707v-1.707H3zm0-3.414h1.707V9.828H3zm0-3.413h1.707V6.414H3zm0-3.414h1.707V3H3zm6.828 6.828h1.707V9.828H9.828zm6.828 3.414h1.707v-1.708h-1.708zm0-3.414h1.707V9.828h-1.708zm0 6.828h1.707v-1.708h-1.708zm0-10.241h1.707V6.414h-1.708zm-6.828 0h1.707V6.414H9.828zM16.655 3v1.707h1.707V3zM9.828 4.707h1.707V3H9.828zm3.414 13.655h1.707v-1.707h-1.708zm0-6.828h1.707V9.828h-1.708zm0-6.828h1.707V3h-1.708z" opacity="0.498" transform="translate(-3 -3)"/>
</svg>
