<svg xmlns="http://www.w3.org/2000/svg" width="15.362" height="15.362" viewBox="0 0 15.362 15.362">
    <path id="prefix__ic_account_box_24px" fill="#fff" d="M3 4.707v11.948a1.706 1.706 0 0 0 1.707 1.707h11.948a1.712 1.712 0 0 0 1.707-1.707V4.707A1.712 1.712 0 0 0 16.655 3H4.707A1.706 1.706 0 0 0 3 4.707zm10.241 3.414a2.56 2.56 0 1 1-2.56-2.56 2.557 2.557 0 0 1 2.56 2.56zM5.56 14.948c0-1.707 3.414-2.646 5.121-2.646s5.121.939 5.121 2.646v.852H5.56z" opacity="0.498" transform="translate(-3 -3)"/>
</svg>
