<?xml version="1.0" encoding="utf-8"?>
<!-- Generator: Adobe Illustrator 24.1.0, SVG Export Plug-In . SVG Version: 6.00 Build 0)  -->
<svg version="1.1" id="Layer_1" xmlns="http://www.w3.org/2000/svg" xmlns:xlink="http://www.w3.org/1999/xlink" x="0px" y="0px"
	 viewBox="0 0 497.9 106.1" style="enable-background:new 0 0 497.9 106.1;" xml:space="preserve">
<style type="text/css">
	.st0{fill:#276FB5;}
	.st1{fill:#1D1D1B;}
	.st2{enable-background:new    ;}
	.st3{fill:#12100B;}
</style>
<g>
	<path class="st0" d="M450.5,99.9c-0.9,0-1.7-0.3-2.4-0.8l-41.9-29.3c-1.1-0.8-1.8-2.1-1.8-3.5c0-1.4,0.7-2.7,1.8-3.5l14.7-10.4
		l-14.4-10.7c-1.9-1.4-2.3-4.1-0.9-6c1.4-1.9,4.1-2.3,6-0.9l16.7,12.3l19.6-13.9c1.4-1,3.3-1,4.7-0.1l25,15.9c1.2,0.8,2,2.1,2,3.6
		s-0.7,2.8-2,3.6l-25.1,16.1c-1.5,0.9-3.4,0.9-4.8-0.2l-19.5-14.4L416,66.3l34.5,24.1l37.2-25.5l0-23.9l-37.4-25.4l-25.7,17.6
		c-1.9,1.3-4.6,0.8-5.9-1.1c-1.3-1.9-0.8-4.6,1.1-5.9L447.9,7c1.4-1,3.3-1,4.8,0l41.7,28.3c1.2,0.8,1.9,2.1,1.9,3.5l-0.1,28.4
		c0,1.4-0.7,2.7-1.9,3.5l-41.5,28.4C452.1,99.6,451.3,99.9,450.5,99.9z M435.4,52.6l14.9,11l17-10.9L450.4,42L435.4,52.6z"/>
	<g>
		<g>
			<path class="st1" d="M29.3,59.4l-1.9-7.3H14.8l-2,7.3H1.3l12.7-39h14l12.8,39H29.3z M25.2,43.5l-1.7-6.4
				c-0.4-1.4-0.9-3.3-1.4-5.5s-0.9-3.9-1.1-4.8c-0.2,0.9-0.5,2.4-0.9,4.5s-1.5,6.2-3.1,12.3H25.2z"/>
			<path class="st1" d="M84.1,39.9c0,8.8-2.8,14.8-8.4,17.8l9.5,10.9H72.1L65.3,60l0,0v0l0,0c-6.1,0-10.8-1.7-14-5.1
				s-4.9-8.4-4.9-14.9c0-6.5,1.6-11.4,4.9-14.8c3.2-3.4,7.9-5.1,14.1-5.1c6.2,0,10.9,1.7,14.1,5.1S84.1,33.3,84.1,39.9z M57.4,39.9
				c0,7.5,2.6,11.3,7.8,11.3c2.7,0,4.6-0.9,5.9-2.7c1.3-1.8,1.9-4.7,1.9-8.5c0-3.9-0.7-6.8-2-8.6c-1.3-1.9-3.2-2.8-5.8-2.8
				C60,28.5,57.4,32.3,57.4,39.9z"/>
			<path class="st1" d="M126.9,20.5v23.4c0,5.1-1.4,9-4.3,11.8c-2.9,2.8-7,4.2-12.5,4.2c-5.3,0-9.4-1.4-12.2-4.1
				c-2.8-2.7-4.3-6.6-4.3-11.7V20.5h10.6v22.8c0,2.7,0.5,4.7,1.5,6c1,1.2,2.5,1.9,4.5,1.9c2.1,0,3.7-0.6,4.7-1.8
				c1-1.2,1.4-3.2,1.4-6.1V20.5H126.9z"/>
			<path class="st1" d="M161.7,59.4l-1.9-7.3h-12.6l-2,7.3h-11.5l12.7-39h14l12.8,39H161.7z M157.6,43.5l-1.7-6.4
				c-0.4-1.4-0.9-3.3-1.4-5.5c-0.6-2.3-0.9-3.9-1.1-4.8c-0.2,0.9-0.5,2.4-0.9,4.5s-1.5,6.2-3.1,12.3H157.6z"/>
			<path class="st1" d="M197.3,59.4h-10.5V29.1h-9.5v-8.6h29.5v8.6h-9.5V59.4z"/>
			<path class="st1" d="M251.4,39.9c0,6.5-1.6,11.5-4.8,14.9s-7.9,5.1-14.1,5.1c-6.1,0-10.8-1.7-14-5.1s-4.9-8.4-4.9-14.9
				c0-6.5,1.6-11.4,4.9-14.8s7.9-5.1,14.1-5.1c6.2,0,10.9,1.7,14.1,5.1S251.4,33.3,251.4,39.9z M224.6,39.9c0,7.5,2.6,11.3,7.8,11.3
				c2.7,0,4.6-0.9,5.9-2.7c1.3-1.8,1.9-4.7,1.9-8.5c0-3.9-0.7-6.8-2-8.6c-1.3-1.9-3.2-2.8-5.8-2.8C227.3,28.5,224.6,32.3,224.6,39.9
				z"/>
			<path class="st1" d="M297.5,39.9c0,6.5-1.6,11.5-4.8,14.9s-7.9,5.1-14.1,5.1c-6.1,0-10.8-1.7-14-5.1c-3.3-3.4-4.9-8.4-4.9-14.9
				c0-6.5,1.6-11.4,4.9-14.8c3.2-3.4,7.9-5.1,14.1-5.1c6.2,0,10.9,1.7,14.1,5.1S297.5,33.3,297.5,39.9z M270.8,39.9
				c0,7.5,2.6,11.3,7.8,11.3c2.7,0,4.6-0.9,5.9-2.7c1.3-1.8,1.9-4.7,1.9-8.5c0-3.9-0.7-6.8-2-8.6c-1.3-1.9-3.2-2.8-5.8-2.8
				C273.4,28.5,270.8,32.3,270.8,39.9z"/>
			<path class="st1" d="M307.3,59.4V20.5h10.5v30.4h15v8.5H307.3z"/>
			<path class="st1" d="M367.1,47.6c0,2.4-0.6,4.6-1.8,6.4c-1.2,1.9-3,3.3-5.3,4.4c-2.3,1-5,1.6-8.1,1.6c-2.6,0-4.8-0.2-6.5-0.5
				c-1.8-0.4-3.6-1-5.5-1.9v-9.4c2,1,4.1,1.8,6.3,2.4c2.2,0.6,4.1,0.9,6,0.9c1.6,0,2.7-0.3,3.4-0.8s1.1-1.2,1.1-2.1
				c0-0.5-0.1-1-0.4-1.4s-0.8-0.8-1.4-1.2c-0.6-0.4-2.4-1.2-5.2-2.5c-2.5-1.2-4.4-2.3-5.7-3.4c-1.3-1.1-2.2-2.3-2.8-3.7
				c-0.6-1.4-0.9-3.1-0.9-5c0-3.6,1.3-6.4,3.9-8.4s6.2-3,10.7-3c4,0,8.1,0.9,12.3,2.8l-3.2,8.1c-3.6-1.7-6.8-2.5-9.4-2.5
				c-1.4,0-2.4,0.2-3,0.7s-0.9,1.1-0.9,1.8c0,0.8,0.4,1.4,1.2,2s2.9,1.7,6.4,3.3c3.4,1.5,5.7,3.1,7,4.9S367.1,45,367.1,47.6z"/>
		</g>
		<g class="st2">
			<path class="st3" d="M187.6,91.7l-1.7-4.4h-5.6l-1.7,4.4H177l5.5-14h1.4l5.5,14H187.6z M185.4,85.8l-1.6-4.3
				c-0.2-0.5-0.4-1.2-0.6-2c-0.1,0.6-0.3,1.3-0.6,2l-1.6,4.3H185.4z"/>
			<path class="st3" d="M205.1,81.8c0,1.4-0.5,2.5-1.4,3.2s-2.3,1.1-4.1,1.1h-1.6v5.5h-1.6V77.8h3.6
				C203.3,77.8,205.1,79.1,205.1,81.8z M197.9,84.8h1.5c1.4,0,2.5-0.2,3.1-0.7c0.6-0.5,1-1.2,1-2.2c0-0.9-0.3-1.6-0.9-2.1
				c-0.6-0.4-1.5-0.7-2.8-0.7h-1.8V84.8z"/>
			<path class="st3" d="M216.7,91.7l-1.7-4.4h-5.6l-1.7,4.4h-1.6l5.5-14h1.4l5.5,14H216.7z M214.5,85.8l-1.6-4.3
				c-0.2-0.5-0.4-1.2-0.6-2c-0.1,0.6-0.3,1.3-0.6,2l-1.6,4.3H214.5z"/>
			<path class="st3" d="M221.9,85.9v5.8h-1.6V77.8h3.8c1.7,0,3,0.3,3.8,1c0.8,0.7,1.2,1.6,1.2,2.9c0,1.8-0.9,3.1-2.8,3.7l3.8,6.2
				h-1.9l-3.4-5.8H221.9z M221.9,84.5h2.2c1.1,0,2-0.2,2.5-0.7c0.5-0.5,0.8-1.1,0.8-2c0-0.9-0.3-1.6-0.8-2c-0.5-0.4-1.4-0.6-2.6-0.6
				h-2.1V84.5z"/>
			<path class="st3" d="M236.6,91.7H235V79.2h-4.4v-1.4H241v1.4h-4.4V91.7z"/>
			<path class="st3" d="M260.2,84.7c0,2.2-0.6,4-1.7,5.2s-2.7,1.9-4.7,1.9c-2,0-3.6-0.6-4.7-1.9s-1.7-3-1.7-5.3c0-2.3,0.6-4,1.7-5.3
				c1.1-1.2,2.7-1.9,4.8-1.9c2,0,3.6,0.6,4.7,1.9C259.7,80.7,260.2,82.5,260.2,84.7z M249.1,84.7c0,1.9,0.4,3.3,1.2,4.3
				s2,1.5,3.5,1.5c1.5,0,2.7-0.5,3.5-1.5c0.8-1,1.2-2.4,1.2-4.3c0-1.9-0.4-3.3-1.2-4.3c-0.8-1-1.9-1.4-3.5-1.4
				c-1.5,0-2.7,0.5-3.5,1.5C249.5,81.4,249.1,82.9,249.1,84.7z"/>
			<path class="st3" d="M264.9,91.7h-1.6V77.8h7.7v1.4h-6.1v5.1h5.8v1.4h-5.8V91.7z"/>
			<path class="st3" d="M286.3,88c0,1.2-0.4,2.2-1.3,2.9s-2.1,1-3.6,1c-1.6,0-2.9-0.2-3.8-0.6v-1.6c0.6,0.2,1.2,0.4,1.9,0.6
				s1.3,0.2,2,0.2c1.1,0,1.9-0.2,2.4-0.6s0.8-1,0.8-1.7c0-0.5-0.1-0.9-0.3-1.2s-0.5-0.6-1-0.9s-1.1-0.6-2.1-0.9
				c-1.3-0.5-2.2-1-2.8-1.6c-0.6-0.6-0.8-1.5-0.8-2.5c0-1.1,0.4-1.9,1.2-2.6c0.8-0.6,1.9-1,3.2-1c1.4,0,2.7,0.3,3.8,0.8l-0.5,1.4
				c-1.1-0.5-2.3-0.7-3.3-0.7c-0.9,0-1.5,0.2-2,0.6c-0.5,0.4-0.7,0.9-0.7,1.5c0,0.5,0.1,0.9,0.3,1.2c0.2,0.3,0.5,0.6,0.9,0.8
				c0.4,0.3,1.1,0.5,1.9,0.9c1.5,0.5,2.5,1.1,3,1.7S286.3,87,286.3,88z"/>
			<path class="st3" d="M297.9,81.8c0,1.4-0.5,2.5-1.4,3.2c-1,0.8-2.3,1.1-4.1,1.1h-1.6v5.5h-1.6V77.8h3.6
				C296.2,77.8,297.9,79.1,297.9,81.8z M290.7,84.8h1.5c1.4,0,2.5-0.2,3.1-0.7c0.6-0.5,1-1.2,1-2.2c0-0.9-0.3-1.6-0.9-2.1
				c-0.6-0.4-1.5-0.7-2.8-0.7h-1.8V84.8z"/>
			<path class="st3" d="M300.8,91.7V77.8h1.6v13.9H300.8z"/>
			<path class="st3" d="M306.3,91.7V77.8h1.6v12.4h6.1v1.5H306.3z"/>
			<path class="st3" d="M316.4,91.7V77.8h1.6v12.4h6.1v1.5H316.4z"/>
			<path class="st3" d="M328.1,91.7h-1.6V77.8h7.7v1.4h-6.1v5.1h5.8v1.4h-5.8V91.7z"/>
			<path class="st3" d="M338.1,85.9v5.8h-1.6V77.8h3.8c1.7,0,3,0.3,3.8,1c0.8,0.7,1.2,1.6,1.2,2.9c0,1.8-0.9,3.1-2.8,3.7l3.8,6.2
				h-1.9l-3.4-5.8H338.1z M338.1,84.5h2.2c1.1,0,2-0.2,2.5-0.7c0.5-0.5,0.8-1.1,0.8-2c0-0.9-0.3-1.6-0.8-2c-0.5-0.4-1.4-0.6-2.6-0.6
				h-2.1V84.5z"/>
			<path class="st3" d="M356.3,91.7h-7.7V77.8h7.7v1.4h-6.1v4.5h5.8v1.4h-5.8v5.1h6.1V91.7z"/>
			<path class="st3" d="M367.1,91.7h-7.7V77.8h7.7v1.4H361v4.5h5.8v1.4H361v5.1h6.1V91.7z"/>
		</g>
	</g>
</g>
</svg>
