<svg xmlns="http://www.w3.org/2000/svg" width="16" height="16.449" viewBox="0 0 16 16.449">
    <path id="prefix__ic_settings_24px" fill="#fff" d="M16.383 11.03a6.409 6.409 0 0 0 .058-.806 6.41 6.41 0 0 0-.058-.806l1.735-1.357a.415.415 0 0 0 .1-.526l-1.646-2.846a.413.413 0 0 0-.5-.181l-2.048.822a6.009 6.009 0 0 0-1.39-.806l-.314-2.179a.4.4 0 0 0-.4-.345H8.628a.4.4 0 0 0-.4.345l-.316 2.18a6.319 6.319 0 0 0-1.39.806l-2.048-.823a.4.4 0 0 0-.5.181L2.328 7.535a.405.405 0 0 0 .1.526l1.734 1.357a6.522 6.522 0 0 0-.058.806 6.522 6.522 0 0 0 .058.806l-1.736 1.357a.415.415 0 0 0-.1.526l1.645 2.846a.413.413 0 0 0 .5.181l2.048-.822a6.009 6.009 0 0 0 1.39.806l.316 2.176a.4.4 0 0 0 .4.345h3.29a.4.4 0 0 0 .4-.345l.313-2.179a6.319 6.319 0 0 0 1.39-.806l2.048.822a.4.4 0 0 0 .5-.181l1.645-2.846a.415.415 0 0 0-.1-.526zm-6.111 2.07a2.879 2.879 0 1 1 2.879-2.879 2.882 2.882 0 0 1-2.879 2.879z" transform="translate(-2.271 -2)"/>
</svg>
