<svg xmlns="http://www.w3.org/2000/svg" width="17.069" height="17.069" viewBox="0 0 17.069 17.069">
    <path id="prefix__ic_copyright_24px" fill="#fff" d="M8.9 9.562a2.182 2.182 0 0 1 .256-.743 1.493 1.493 0 0 1 .5-.529 1.515 1.515 0 0 1 .777-.2 1.547 1.547 0 0 1 .538.111 1.376 1.376 0 0 1 .444.307 1.643 1.643 0 0 1 .29.452 1.5 1.5 0 0 1 .119.546h1.528a3.055 3.055 0 0 0-.239-1.1 2.561 2.561 0 0 0-.6-.862 2.788 2.788 0 0 0-.922-.563 3.3 3.3 0 0 0-1.186-.2 3.335 3.335 0 0 0-1.451.29 2.935 2.935 0 0 0-1.024.785 3.208 3.208 0 0 0-.606 1.161 5 5 0 0 0-.2 1.4v.23a5 5 0 0 0 .2 1.4 3.1 3.1 0 0 0 .606 1.152 2.914 2.914 0 0 0 1.024.777 3.463 3.463 0 0 0 1.451.29 3.255 3.255 0 0 0 1.127-.2 2.911 2.911 0 0 0 .922-.538 2.605 2.605 0 0 0 .632-.8 2.3 2.3 0 0 0 .256-.981h-1.536a1.215 1.215 0 0 1-.128.5 1.256 1.256 0 0 1-.307.393 1.344 1.344 0 0 1-.444.256 1.7 1.7 0 0 1-.512.085 1.45 1.45 0 0 1-.76-.2 1.493 1.493 0 0 1-.5-.529 2.23 2.23 0 0 1-.256-.751 5.752 5.752 0 0 1-.068-.853v-.23a5.686 5.686 0 0 1 .069-.856zM10.535 2a8.535 8.535 0 1 0 8.535 8.535A8.538 8.538 0 0 0 10.535 2zm0 15.362a6.828 6.828 0 1 1 6.828-6.828 6.837 6.837 0 0 1-6.828 6.828z" opacity="0.498" transform="translate(-2 -2)"/>
</svg>
