<?xml version="1.0" encoding="utf-8"?>
<!-- Generator: Adobe Illustrator 24.1.0, SVG Export Plug-In . SVG Version: 6.00 Build 0)  -->
<svg version="1.1" id="Layer_1" xmlns="http://www.w3.org/2000/svg" xmlns:xlink="http://www.w3.org/1999/xlink" x="0px" y="0px"
	 viewBox="0 0 497.9 107" style="enable-background:new 0 0 497.9 107;" xml:space="preserve">
<style type="text/css">
	.st0{fill:#276FB5;}
	.st1{fill:#FFFFFF;}
	.st2{enable-background:new    ;}
</style>
<g>
	<path class="st0" d="M450.6,100c-0.9,0-1.7-0.3-2.4-0.8l-41.9-29.3c-1.1-0.8-1.8-2.1-1.8-3.5c0-1.4,0.7-2.7,1.8-3.5l14.7-10.4
		l-14.4-10.7c-1.9-1.4-2.3-4.1-0.9-6c1.4-1.9,4.1-2.3,6-0.9l16.7,12.3L448,33.5c1.4-1,3.3-1,4.7-0.1l25,15.9c1.2,0.8,2,2.1,2,3.6
		c0,1.5-0.7,2.8-2,3.6l-25.1,16.1c-1.5,0.9-3.4,0.9-4.8-0.2l-19.5-14.4l-12.1,8.5l34.5,24.1L487.9,65l0-23.9l-37.4-25.4l-25.7,17.6
		c-1.9,1.3-4.6,0.8-5.9-1.1c-1.3-1.9-0.8-4.6,1.1-5.9l28.1-19.3c1.4-1,3.3-1,4.8,0l41.7,28.3c1.2,0.8,1.9,2.1,1.9,3.5l-0.1,28.4
		c0,1.4-0.7,2.7-1.9,3.5L453,99.2C452.3,99.7,451.5,100,450.6,100z M435.6,52.7l14.9,11l17-10.9l-16.9-10.7L435.6,52.7z"/>
	<g>
		<g>
			<path class="st1" d="M29.5,59.5l-1.9-7.3H15l-2,7.3H1.5l12.7-39h14l12.8,39H29.5z M25.4,43.6l-1.7-6.4c-0.4-1.4-0.9-3.3-1.4-5.5
				c-0.6-2.3-0.9-3.9-1.1-4.8c-0.2,0.9-0.5,2.4-0.9,4.5s-1.5,6.2-3.1,12.3H25.4z"/>
			<path class="st1" d="M84.3,40c0,8.8-2.8,14.8-8.4,17.8l9.5,10.9H72.3l-6.9-8.6l0,0v0l0,0c-6.1,0-10.8-1.7-14-5.1
				c-3.3-3.4-4.9-8.4-4.9-14.9c0-6.5,1.6-11.4,4.9-14.8c3.2-3.4,7.9-5.1,14.1-5.1c6.2,0,10.9,1.7,14.1,5.1S84.3,33.4,84.3,40z
				 M57.6,40c0,7.5,2.6,11.3,7.8,11.3c2.7,0,4.6-0.9,5.9-2.7s1.9-4.7,1.9-8.5c0-3.9-0.7-6.8-2-8.6c-1.3-1.9-3.2-2.8-5.8-2.8
				C60.2,28.6,57.6,32.4,57.6,40z"/>
			<path class="st1" d="M127.1,20.6V44c0,5.1-1.4,9-4.3,11.8c-2.9,2.8-7,4.2-12.5,4.2c-5.3,0-9.4-1.4-12.2-4.1
				c-2.8-2.7-4.3-6.6-4.3-11.7V20.6h10.6v22.8c0,2.7,0.5,4.7,1.5,6c1,1.2,2.5,1.9,4.5,1.9c2.1,0,3.7-0.6,4.7-1.8
				c1-1.2,1.4-3.2,1.4-6.1V20.6H127.1z"/>
			<path class="st1" d="M161.9,59.5l-1.9-7.3h-12.6l-2,7.3h-11.5l12.7-39h14l12.8,39H161.9z M157.8,43.6l-1.7-6.4
				c-0.4-1.4-0.9-3.3-1.4-5.5s-0.9-3.9-1.1-4.8c-0.2,0.9-0.5,2.4-0.9,4.5c-0.5,2.1-1.5,6.2-3.1,12.3H157.8z"/>
			<path class="st1" d="M197.4,59.5h-10.5V29.2h-9.5v-8.6h29.5v8.6h-9.5V59.5z"/>
			<path class="st1" d="M251.6,40c0,6.5-1.6,11.5-4.8,14.9s-7.9,5.1-14.1,5.1c-6.1,0-10.8-1.7-14-5.1s-4.9-8.4-4.9-14.9
				c0-6.5,1.6-11.4,4.9-14.8c3.2-3.4,7.9-5.1,14.1-5.1c6.2,0,10.9,1.7,14.1,5.1C250,28.5,251.6,33.4,251.6,40z M224.8,40
				c0,7.5,2.6,11.3,7.8,11.3c2.7,0,4.6-0.9,5.9-2.7s1.9-4.7,1.9-8.5c0-3.9-0.7-6.8-2-8.6c-1.3-1.9-3.2-2.8-5.8-2.8
				C227.5,28.6,224.8,32.4,224.8,40z"/>
			<path class="st1" d="M297.7,40c0,6.5-1.6,11.5-4.8,14.9S285,60,278.8,60c-6.1,0-10.8-1.7-14-5.1c-3.3-3.4-4.9-8.4-4.9-14.9
				c0-6.5,1.6-11.4,4.9-14.8c3.2-3.4,7.9-5.1,14.1-5.1c6.2,0,10.9,1.7,14.1,5.1S297.7,33.4,297.7,40z M271,40
				c0,7.5,2.6,11.3,7.8,11.3c2.7,0,4.6-0.9,5.9-2.7s1.9-4.7,1.9-8.5c0-3.9-0.7-6.8-2-8.6c-1.3-1.9-3.2-2.8-5.8-2.8
				C273.6,28.6,271,32.4,271,40z"/>
			<path class="st1" d="M307.5,59.5V20.6H318V51h15v8.5H307.5z"/>
			<path class="st1" d="M367.3,47.7c0,2.4-0.6,4.6-1.8,6.4c-1.2,1.9-3,3.3-5.3,4.4c-2.3,1-5,1.6-8.1,1.6c-2.6,0-4.8-0.2-6.5-0.5
				c-1.8-0.4-3.6-1-5.5-1.9v-9.4c2,1,4.1,1.8,6.3,2.4s4.1,0.9,6,0.9c1.6,0,2.7-0.3,3.4-0.8c0.7-0.5,1.1-1.2,1.1-2.1
				c0-0.5-0.1-1-0.4-1.4s-0.8-0.8-1.4-1.2c-0.6-0.4-2.4-1.2-5.2-2.5c-2.5-1.2-4.4-2.3-5.7-3.4s-2.2-2.3-2.8-3.7
				c-0.6-1.4-0.9-3.1-0.9-5c0-3.6,1.3-6.4,3.9-8.4s6.2-3,10.7-3c4,0,8.1,0.9,12.3,2.8l-3.2,8.1c-3.6-1.7-6.8-2.5-9.4-2.5
				c-1.4,0-2.4,0.2-3,0.7c-0.6,0.5-0.9,1.1-0.9,1.8c0,0.8,0.4,1.4,1.2,2c0.8,0.6,2.9,1.7,6.4,3.3c3.4,1.5,5.7,3.1,7,4.9
				C366.7,42.9,367.3,45.1,367.3,47.7z"/>
		</g>
		<g class="st2">
			<path class="st1" d="M187.8,91.8l-1.7-4.4h-5.6l-1.7,4.4h-1.6l5.5-14h1.4l5.5,14H187.8z M185.6,85.9l-1.6-4.3
				c-0.2-0.5-0.4-1.2-0.6-2c-0.1,0.6-0.3,1.3-0.6,2l-1.6,4.3H185.6z"/>
			<path class="st1" d="M205.2,81.9c0,1.4-0.5,2.5-1.4,3.2c-1,0.8-2.3,1.1-4.1,1.1h-1.6v5.5h-1.6V77.9h3.6
				C203.5,77.9,205.2,79.2,205.2,81.9z M198.1,84.9h1.5c1.4,0,2.5-0.2,3.1-0.7c0.6-0.5,1-1.2,1-2.2c0-0.9-0.3-1.6-0.9-2.1
				c-0.6-0.4-1.5-0.7-2.8-0.7h-1.8V84.9z"/>
			<path class="st1" d="M216.9,91.8l-1.7-4.4h-5.6l-1.7,4.4h-1.6l5.5-14h1.4l5.5,14H216.9z M214.7,85.9l-1.6-4.3
				c-0.2-0.5-0.4-1.2-0.6-2c-0.1,0.6-0.3,1.3-0.6,2l-1.6,4.3H214.7z"/>
			<path class="st1" d="M222.1,86v5.8h-1.6V77.9h3.8c1.7,0,3,0.3,3.8,1c0.8,0.7,1.2,1.6,1.2,2.9c0,1.8-0.9,3.1-2.8,3.7l3.8,6.2h-1.9
				L225,86H222.1z M222.1,84.6h2.2c1.1,0,2-0.2,2.5-0.7c0.5-0.5,0.8-1.1,0.8-2c0-0.9-0.3-1.6-0.8-2c-0.5-0.4-1.4-0.6-2.6-0.6h-2.1
				V84.6z"/>
			<path class="st1" d="M236.8,91.8h-1.6V79.3h-4.4v-1.4h10.4v1.4h-4.4V91.8z"/>
			<path class="st1" d="M260.4,84.8c0,2.2-0.6,4-1.7,5.2S256,92,254,92c-2,0-3.6-0.6-4.7-1.9c-1.1-1.3-1.7-3-1.7-5.3
				c0-2.3,0.6-4,1.7-5.3c1.1-1.2,2.7-1.9,4.8-1.9c2,0,3.6,0.6,4.7,1.9C259.8,80.8,260.4,82.6,260.4,84.8z M249.3,84.8
				c0,1.9,0.4,3.3,1.2,4.3c0.8,1,2,1.5,3.5,1.5c1.5,0,2.7-0.5,3.5-1.5s1.2-2.4,1.2-4.3c0-1.9-0.4-3.3-1.2-4.3
				c-0.8-1-1.9-1.4-3.5-1.4c-1.5,0-2.7,0.5-3.5,1.5C249.7,81.5,249.3,83,249.3,84.8z"/>
			<path class="st1" d="M265.1,91.8h-1.6V77.9h7.7v1.4h-6.1v5.1h5.8v1.4h-5.8V91.8z"/>
			<path class="st1" d="M286.5,88.1c0,1.2-0.4,2.2-1.3,2.9s-2.1,1-3.6,1c-1.6,0-2.9-0.2-3.8-0.6v-1.6c0.6,0.2,1.2,0.4,1.9,0.6
				c0.7,0.1,1.3,0.2,2,0.2c1.1,0,1.9-0.2,2.4-0.6s0.8-1,0.8-1.7c0-0.5-0.1-0.9-0.3-1.2c-0.2-0.3-0.5-0.6-1-0.9
				c-0.5-0.3-1.1-0.6-2.1-0.9c-1.3-0.5-2.2-1-2.8-1.6c-0.6-0.6-0.8-1.5-0.8-2.5c0-1.1,0.4-1.9,1.2-2.6c0.8-0.6,1.9-1,3.2-1
				c1.4,0,2.7,0.3,3.8,0.8l-0.5,1.4c-1.1-0.5-2.3-0.7-3.3-0.7c-0.9,0-1.5,0.2-2,0.6c-0.5,0.4-0.7,0.9-0.7,1.5c0,0.5,0.1,0.9,0.3,1.2
				c0.2,0.3,0.5,0.6,0.9,0.8s1.1,0.5,1.9,0.9c1.5,0.5,2.5,1.1,3,1.7C286.2,86.4,286.5,87.1,286.5,88.1z"/>
			<path class="st1" d="M298.1,81.9c0,1.4-0.5,2.5-1.4,3.2c-1,0.8-2.3,1.1-4.1,1.1h-1.6v5.5h-1.6V77.9h3.6
				C296.4,77.9,298.1,79.2,298.1,81.9z M290.9,84.9h1.5c1.4,0,2.5-0.2,3.1-0.7c0.6-0.5,1-1.2,1-2.2c0-0.9-0.3-1.6-0.9-2.1
				c-0.6-0.4-1.5-0.7-2.8-0.7h-1.8V84.9z"/>
			<path class="st1" d="M301,91.8V77.9h1.6v13.9H301z"/>
			<path class="st1" d="M306.4,91.8V77.9h1.6v12.4h6.1v1.5H306.4z"/>
			<path class="st1" d="M316.5,91.8V77.9h1.6v12.4h6.1v1.5H316.5z"/>
			<path class="st1" d="M328.3,91.8h-1.6V77.9h7.7v1.4h-6.1v5.1h5.8v1.4h-5.8V91.8z"/>
			<path class="st1" d="M338.3,86v5.8h-1.6V77.9h3.8c1.7,0,3,0.3,3.8,1c0.8,0.7,1.2,1.6,1.2,2.9c0,1.8-0.9,3.1-2.8,3.7l3.8,6.2h-1.9
				l-3.4-5.8H338.3z M338.3,84.6h2.2c1.1,0,2-0.2,2.5-0.7c0.5-0.5,0.8-1.1,0.8-2c0-0.9-0.3-1.6-0.8-2c-0.5-0.4-1.4-0.6-2.6-0.6h-2.1
				V84.6z"/>
			<path class="st1" d="M356.5,91.8h-7.7V77.9h7.7v1.4h-6.1v4.5h5.8v1.4h-5.8v5.1h6.1V91.8z"/>
			<path class="st1" d="M367.3,91.8h-7.7V77.9h7.7v1.4h-6.1v4.5h5.8v1.4h-5.8v5.1h6.1V91.8z"/>
		</g>
	</g>
</g>
</svg>
