<svg id="Layer_1" data-name="Layer 1" xmlns="http://www.w3.org/2000/svg" viewBox="0 0 497.91 106.98"><defs><style>.cls-1,.cls-2{fill:#fff;}.cls-1{fill-rule:evenodd;}.cls-3{fill:none;stroke:#fff;stroke-miterlimit:10;stroke-width:1.38px;}.cls-4{fill:#2773ba;}</style></defs><title>AT2.0_logo_wht</title><path class="cls-1" d="M70.56,75.27a10.17,10.17,0,0,0,.24-2.41,13.91,13.91,0,0,0-1.74-6.39s1.66,5.18-1.64,9.54A20.05,20.05,0,0,1,70.56,75.27Z" transform="translate(-8.99 -9.11)"/><path class="cls-1" d="M78,59.6c1.62,1.79,4,6,4.31,9.07.7-1.49,1-3,2.85-2.54A48.61,48.61,0,0,0,78,59.6Z" transform="translate(-8.99 -9.11)"/><path class="cls-1" d="M74.07,56.9A25.51,25.51,0,0,0,69,54.2a12.62,12.62,0,0,0-3.62-.77.69.69,0,0,0-.5.19c-.2.19-.19.6-.45,1s-1.09.44-1,1.13a7.43,7.43,0,0,0,.57,1.87,22.39,22.39,0,0,0,1.93,3.35c.31.44,1.45,2,1.66,2.22a15,15,0,0,1,3.9,9.5,14.24,14.24,0,0,1-3,9.15,9.41,9.41,0,0,1-4.83,2.84,3.32,3.32,0,0,1-2.1-.31c-1-.56-1.41-1.9-1.21-3.5a11.33,11.33,0,0,1,3-6.07c-5.12-.59-7.84,6.76-13.29,2,.55,3.17,3.14,6.46,6.33,8.43C64.21,90,70.85,87,71.84,86.59A17.49,17.49,0,0,0,80,78.67a16.13,16.13,0,0,0,1.36-3.62A17.1,17.1,0,0,0,74.07,56.9Z" transform="translate(-8.99 -9.11)"/><rect class="cls-2" x="51.24" y="43.51" width="3.42" height="3.42"/><rect class="cls-2" x="44.9" y="50.53" width="4.75" height="4.75"/><rect class="cls-2" x="44.41" y="29.98" width="5.38" height="5.38"/><rect class="cls-2" x="36.46" y="43.51" width="6.83" height="6.83"/><rect class="cls-2" x="39.29" y="36.28" width="3.42" height="3.42"/><rect class="cls-2" x="44.07" y="39.81" width="3.42" height="3.42"/><rect class="cls-2" x="53.78" y="29.69" width="3.42" height="3.42"/><path class="cls-3" d="M24.25,56.18a39.38,39.38,0,0,1,1.26-5.46" transform="translate(-8.99 -9.11)"/><path class="cls-4" d="M56.85,99.06C39.94,94.25,26.21,83,16.9,66.14A92.15,92.15,0,0,1,10.26,51,53.83,53.83,0,0,0,9,62.6,53.27,53.27,0,0,0,21.57,97a89.45,89.45,0,0,0,21.38,3A75.47,75.47,0,0,0,56.85,99.06Z" transform="translate(-8.99 -9.11)"/><path class="cls-4" d="M28.08,75.94c-4.28-17-1.37-34.58,8.55-51a92.21,92.21,0,0,1,9.78-13.32A53.62,53.62,0,0,0,12.19,44.35a89.92,89.92,0,0,0,8.06,20.08A75.94,75.94,0,0,0,28.08,75.94Z" transform="translate(-8.99 -9.11)"/><path class="cls-4" d="M39.79,26.94a74.37,74.37,0,0,0-6.07,12.55C46.34,27.25,63,21,82.21,21.36a92.54,92.54,0,0,1,16.4,1.8,53.31,53.31,0,0,0-36.13-14,54.4,54.4,0,0,0-9.36.83A89.65,89.65,0,0,0,39.79,26.94Z" transform="translate(-8.99 -9.11)"/><path class="cls-4" d="M68.1,26.13c16.9,4.81,30.65,16.09,40,32.92a91.91,91.91,0,0,1,6.65,15.11,53.49,53.49,0,0,0-11.31-46A89.37,89.37,0,0,0,82,25.12,74,74,0,0,0,68.1,26.13Z" transform="translate(-8.99 -9.11)"/><path class="cls-4" d="M96.88,49.25c4.28,17,1.37,34.58-8.53,51.05a93,93,0,0,1-9.78,13.32,53.62,53.62,0,0,0,34.21-32.79,89.8,89.8,0,0,0-8.07-20.07A75.21,75.21,0,0,0,96.88,49.25Z" transform="translate(-8.99 -9.11)"/><path class="cls-4" d="M85.18,98.25A74.37,74.37,0,0,0,91.25,85.7c-12.28,11.91-28.39,18.16-47,18.16H42.76A92.46,92.46,0,0,1,26.36,102a53.33,53.33,0,0,0,45.5,13.21A89.74,89.74,0,0,0,85.18,98.25Z" transform="translate(-8.99 -9.11)"/><path class="cls-2" d="M151.21,100.4c.13,3.3,1.67,6.56,6.77,6.56,4.67,0,6.82-2.87,6.82-6.37,0-3.69-1.79-5.45-5.75-7.28-2.58-1.21-3.3-2-3.3-3.56s.69-2.52,2.26-2.52c2,0,2.35,1.86,2.45,3.14h3.89c-.07-2.88-1.28-6.24-6.28-6.24-4,0-6.27,2.42-6.27,5.94,0,3.3,1.5,4.9,5.29,6.7,2.78,1.31,3.66,2.38,3.66,4.18s-.72,2.88-2.64,2.88-2.78-1.6-3-3.43Z" transform="translate(-8.99 -9.11)"/><path class="cls-2" d="M174.77,87.66h2.15c1.8,0,2.94,1.11,2.94,3.33s-1,3.43-3.17,3.43h-1.92Zm-4,18.91h4v-9h2.38c4.21,0,6.7-2.29,6.7-6.54,0-4.41-2.75-6.59-6.41-6.59h-6.63Z" transform="translate(-8.99 -9.11)"/><rect class="cls-2" x="180.67" y="75.34" width="3.95" height="22.11"/><polygon class="cls-2" points="191.81 97.46 202.95 97.46 203.34 94.09 195.76 94.09 195.76 75.34 191.81 75.34 191.81 97.46"/><polygon class="cls-2" points="208.6 97.46 219.74 97.46 220.13 94.09 212.55 94.09 212.55 75.34 208.6 75.34 208.6 97.46"/><polygon class="cls-2" points="225.65 97.46 228.1 97.46 228.1 87.01 235.38 87.01 235.38 84.85 228.1 84.85 228.1 77.44 235.87 77.44 235.87 75.28 225.65 75.28 225.65 97.46"/><path class="cls-2" d="M253.33,86.45h3.07c2.45,0,3.46,1.5,3.46,3.72,0,2.58-1,4.12-3.72,4.12h-2.81Zm2.68,9.9c3,0,3.62,1.53,3.62,4.67v.75a21.44,21.44,0,0,0,.33,4.8h2.45a23.29,23.29,0,0,1-.33-4.74V101c0-3.1-.65-4.93-2.71-5.65,1.37-.46,3-1.86,3-5.19,0-3.63-1.92-5.72-5.65-5.72h-5.81v22.18h2.45V96.35Z" transform="translate(-8.99 -9.11)"/><polygon class="cls-2" points="270.01 84.65 262.6 84.65 262.6 77.44 270.37 77.44 270.37 75.28 260.18 75.28 260.18 97.46 270.5 97.46 270.83 95.3 262.6 95.3 262.6 86.81 270.01 86.81 270.01 84.65"/><polygon class="cls-2" points="286.64 84.65 279.22 84.65 279.22 77.44 287 77.44 287 75.28 276.8 75.28 276.8 97.46 287.13 97.46 287.45 95.3 279.22 95.3 279.22 86.81 286.64 86.81 286.64 84.65"/><path class="cls-4" d="M161.27,43c.85-5.25,1.7-10.93,2.07-14.38h.27c.42,3.29,1.22,9.13,2.07,14.38Zm5.47,6.9,1.27,7.7h8.55l-7.17-35.83H157.82l-7.06,35.83H159l1.22-7.7Z" transform="translate(-8.99 -9.11)"/><path class="cls-4" d="M200.66,27.58c3,0,3.66,3.13,3.66,11.68,0,9.08-.69,12.53-3.66,12.53-2.82,0-3.61-3.72-3.61-12.53C197.05,30.87,197.84,27.58,200.66,27.58Zm.1-6.53c-8.22,0-12.31,5.47-12.31,18.21,0,13.22,3.66,19,12,19a13.69,13.69,0,0,0,4.3-.58l6.64,4.67L215.52,57l-5.2-3.72c1.8-3.07,2.6-7.64,2.6-13.9C212.92,26.94,209.2,21.05,200.76,21.05Z" transform="translate(-8.99 -9.11)"/><path class="cls-4" d="M227.15,21.74V46.53c0,7.38,3.18,11.73,11.46,11.73s11.78-4.35,11.78-11.68V21.74h-8.28V46.85c0,2.65-.47,4.94-3.29,4.94s-3.39-2.66-3.39-5V21.74Z" transform="translate(-8.99 -9.11)"/><path class="cls-4" d="M273.22,43c.85-5.25,1.7-10.93,2.07-14.38h.27c.42,3.29,1.22,9.13,2.07,14.38Zm5.47,6.9,1.27,7.7h8.55l-7.17-35.83H269.77l-7.06,35.83h8.23l1.22-7.7Z" transform="translate(-8.99 -9.11)"/><polygon class="cls-2" points="294.8 48.46 303.03 48.46 303.03 19.37 310.04 19.37 310.04 12.63 287.74 12.63 287.74 19.37 294.8 19.37 294.8 48.46"/><path class="cls-2" d="M342.86,27.58c3,0,3.67,3.13,3.67,11.68,0,9.08-.69,12.53-3.67,12.53-2.81,0-3.61-3.72-3.61-12.53C339.25,30.87,340.05,27.58,342.86,27.58Zm.11-6.53c-8.23,0-12.32,5.47-12.32,18.21,0,13.22,3.67,19,12,19,8.92,0,12.48-5.68,12.48-18.84C355.13,26.94,351.41,21.05,343,21.05Z" transform="translate(-8.99 -9.11)"/><path class="cls-2" d="M380.92,27.58c3,0,3.67,3.13,3.67,11.68,0,9.08-.69,12.53-3.67,12.53-2.81,0-3.61-3.72-3.61-12.53C377.31,30.87,378.11,27.58,380.92,27.58Zm.11-6.53c-8.23,0-12.32,5.47-12.32,18.21,0,13.22,3.67,19,12,19,8.92,0,12.48-5.68,12.48-18.84C393.19,26.94,389.47,21.05,381,21.05Z" transform="translate(-8.99 -9.11)"/><polygon class="cls-2" points="398.74 48.46 417.58 48.46 418.32 41.77 406.96 41.77 406.96 12.63 398.74 12.63 398.74 48.46"/><path class="cls-2" d="M439.37,47.17c.16,6.1,2.81,11.09,11.52,11.09,8.06,0,11.51-4.72,11.51-10.67s-2.81-8.86-9.44-12.21c-3.93-1.91-4.73-3-4.73-5s.85-3.18,2.66-3.18c2.33,0,2.81,2.12,3,4.61h7.91c-.06-5.46-2.44-10.72-10.83-10.72-7.11,0-10.83,4-10.83,10.19,0,5.26,2.34,8,8.55,11.15,4.24,2.18,5.46,3.66,5.46,6.1,0,2.07-.74,3.67-3.13,3.67s-3.29-2-3.5-5Z" transform="translate(-8.99 -9.11)"/><path class="cls-2" d="M488.84,41.24l.32-1.86h-7.69c.34-1.31,1.51-3.26,3.77-5.69,2.52-2.66,3.37-3.94,3.37-6.51,0-2.78-1.17-5-4.57-5s-4.72,2.62-4.74,5.37h2.05c.09-2.23.86-3.63,2.66-3.63,2,0,2.46,1.57,2.46,3.26,0,2.17-.74,3.14-3.14,5.8-2.95,3.23-4.26,5.8-4.29,8.15v.14Z" transform="translate(-8.99 -9.11)"/><rect class="cls-2" x="483.02" y="28.21" width="2.12" height="3.94"/><path class="cls-2" d="M502,24c2.12,0,2.8,2.05,2.8,7.63s-.57,8.14-2.83,8.14-2.83-2.8-2.83-8.2C499.13,25.86,500,24,502,24Zm.06-1.8c-3.2,0-5.06,2.25-5.06,9.43,0,6.6,1.2,9.94,5,9.94s5-3,5-9.91S505.45,22.15,502.05,22.15Z" transform="translate(-8.99 -9.11)"/></svg>