<svg id="Layer_1" data-name="Layer 1" xmlns="http://www.w3.org/2000/svg" viewBox="0 0 497.91 106.07"><defs><style>.cls-1{fill-rule:evenodd;}.cls-2{fill:#1da2b0;}.cls-3{fill:none;stroke:#fff;stroke-miterlimit:10;stroke-width:1.38px;}.cls-4{fill:#2773ba;}.cls-5{fill:#102740;}</style></defs><title>AT2.0_logo_drk_tmtREV</title><path class="cls-1" d="M70,73.91a10.48,10.48,0,0,0,.24-2.39,13.77,13.77,0,0,0-1.72-6.33s1.64,5.14-1.64,9.46A20,20,0,0,1,70,73.91Z" transform="translate(-8.95 -8.32)"/><path class="cls-1" d="M77.41,58.38a19.65,19.65,0,0,1,4.27,9c.69-1.48,1-3,2.82-2.52A48.18,48.18,0,0,0,77.41,58.38Z" transform="translate(-8.95 -8.32)"/><path class="cls-1" d="M73.47,55.7A25.37,25.37,0,0,0,68.4,53a12.68,12.68,0,0,0-3.58-.76.69.69,0,0,0-.5.19c-.2.19-.19.6-.44.94s-1.09.45-1.05,1.12a7.56,7.56,0,0,0,.57,1.87,21.42,21.42,0,0,0,1.91,3.31c.3.44,1.44,2,1.65,2.21a14.92,14.92,0,0,1,3.86,9.41,14.09,14.09,0,0,1-3,9.08,9.36,9.36,0,0,1-4.78,2.82A3.34,3.34,0,0,1,61,82.89c-1-.55-1.4-1.87-1.21-3.46a11.43,11.43,0,0,1,3-6c-5.07-.58-7.77,6.71-13.18,2,.55,3.14,3.12,6.41,6.28,8.36,7.81,4.81,14.39,1.85,15.37,1.42a17.42,17.42,0,0,0,8.11-7.85,16.25,16.25,0,0,0,1.35-3.6A17,17,0,0,0,73.47,55.7Z" transform="translate(-8.95 -8.32)"/><rect class="cls-2" x="50.8" y="43.14" width="3.39" height="3.39"/><rect class="cls-2" x="44.52" y="50.1" width="4.71" height="4.71"/><rect class="cls-2" x="44.04" y="29.73" width="5.33" height="5.33"/><rect class="cls-2" x="36.15" y="43.14" width="6.77" height="6.77"/><rect class="cls-2" x="38.95" y="35.97" width="3.39" height="3.39"/><rect class="cls-2" x="43.69" y="39.47" width="3.39" height="3.39"/><rect class="cls-2" x="53.32" y="29.44" width="3.39" height="3.39"/><path class="cls-3" d="M98.47,77.41a39.42,39.42,0,0,1-18,18.69" transform="translate(-8.95 -8.32)"/><path class="cls-3" d="M24.07,55a38.48,38.48,0,0,1,1.25-5.42" transform="translate(-8.95 -8.32)"/><path class="cls-4" d="M56.39,97.5c-16.76-4.77-30.37-16-39.6-32.64a91,91,0,0,1-6.58-15A53,53,0,0,0,21.42,95.5a89.14,89.14,0,0,0,21.2,3A75,75,0,0,0,56.39,97.5Z" transform="translate(-8.95 -8.32)"/><path class="cls-4" d="M27.88,74.57C23.63,57.68,26.52,40.29,36.35,24a90.55,90.55,0,0,1,9.7-13.2,53.12,53.12,0,0,0-33.93,32.5,88.73,88.73,0,0,0,8,19.9A74.17,74.17,0,0,0,27.88,74.57Z" transform="translate(-8.95 -8.32)"/><path class="cls-4" d="M39.48,26a74.72,74.72,0,0,0-6,12.45c12.52-12.14,29-18.34,48.08-18A91,91,0,0,1,97.8,22.25,52.82,52.82,0,0,0,62,8.32a53.47,53.47,0,0,0-9.28.82A89.34,89.34,0,0,0,39.48,26Z" transform="translate(-8.95 -8.32)"/><path class="cls-4" d="M67.55,25.19c16.76,4.77,30.39,16,39.63,32.64a91.5,91.5,0,0,1,6.58,15,52.92,52.92,0,0,0-11.21-45.6,88.62,88.62,0,0,0-21.19-3A73.62,73.62,0,0,0,67.55,25.19Z" transform="translate(-8.95 -8.32)"/><path class="cls-4" d="M96.08,48.11c4.25,16.9,1.37,34.28-8.45,50.62a92,92,0,0,1-9.7,13.21,53.17,53.17,0,0,0,33.92-32.51,89.14,89.14,0,0,0-8-19.9A74,74,0,0,0,96.08,48.11Z" transform="translate(-8.95 -8.32)"/><path class="cls-4" d="M84.49,96.7a74.65,74.65,0,0,0,6-12.45c-12.18,11.82-28.14,18-46.57,18h-1.5a92.91,92.91,0,0,1-16.26-1.79,52.93,52.93,0,0,0,45.11,13.09A89,89,0,0,0,84.49,96.7Z" transform="translate(-8.95 -8.32)"/><path d="M150,98.82c.13,3.28,1.65,6.51,6.7,6.51,4.63,0,6.77-2.85,6.77-6.31,0-3.66-1.78-5.41-5.7-7.22-2.56-1.2-3.27-2-3.27-3.53s.68-2.5,2.23-2.5c2,0,2.34,1.85,2.43,3.11H163c-.07-2.85-1.27-6.18-6.22-6.18-3.95,0-6.22,2.39-6.22,5.89,0,3.27,1.49,4.86,5.25,6.64,2.75,1.29,3.62,2.36,3.62,4.14s-.71,2.85-2.62,2.85-2.75-1.58-2.95-3.4Z" transform="translate(-8.95 -8.32)"/><path d="M173.31,86.19h2.14c1.78,0,2.91,1.1,2.91,3.31s-.94,3.4-3.14,3.4h-1.91ZM169.39,105h3.92V96h2.36c4.18,0,6.64-2.27,6.64-6.48,0-4.37-2.72-6.54-6.35-6.54h-6.57Z" transform="translate(-8.95 -8.32)"/><rect x="179.13" y="74.7" width="3.92" height="21.93"/><polygon points="190.17 96.63 201.22 96.63 201.61 93.29 194.09 93.29 194.09 74.7 190.17 74.7 190.17 96.63"/><polygon points="206.82 96.63 217.87 96.63 218.25 93.29 210.74 93.29 210.74 74.7 206.82 74.7 206.82 96.63"/><polygon points="223.73 96.63 226.16 96.63 226.16 86.27 233.38 86.27 233.38 84.13 226.16 84.13 226.16 76.78 233.87 76.78 233.87 74.64 223.73 74.64 223.73 96.63"/><path d="M251.2,85h3c2.43,0,3.44,1.49,3.44,3.7,0,2.56-1,4.08-3.69,4.08H251.2Zm2.66,9.82c3,0,3.59,1.52,3.59,4.63v.74a21.2,21.2,0,0,0,.33,4.77h2.42a23.78,23.78,0,0,1-.32-4.7v-.88c0-3.07-.65-4.89-2.69-5.6,1.36-.45,2.95-1.84,2.95-5.15,0-3.59-1.91-5.67-5.6-5.67h-5.77v22h2.43V94.81Z" transform="translate(-8.95 -8.32)"/><polygon points="267.71 83.93 260.36 83.93 260.36 76.78 268.07 76.78 268.07 74.64 257.96 74.64 257.96 96.63 268.2 96.63 268.52 94.49 260.36 94.49 260.36 86.07 267.71 86.07 267.71 83.93"/><polygon points="284.19 83.93 276.84 83.93 276.84 76.78 284.55 76.78 284.55 74.64 274.45 74.64 274.45 96.63 284.68 96.63 285 94.49 276.84 94.49 276.84 86.07 284.19 86.07 284.19 83.93"/><path class="cls-4" d="M159.93,41.89c.84-5.21,1.68-10.84,2-14.26h.26c.43,3.26,1.21,9.05,2.06,14.26Zm5.42,6.84,1.26,7.63h8.48L168,20.84H156.51l-7,35.52h8.16l1.21-7.63Z" transform="translate(-8.95 -8.32)"/><path class="cls-4" d="M199,26.63c3,0,3.63,3.1,3.63,11.58,0,9-.68,12.42-3.63,12.42-2.79,0-3.58-3.69-3.58-12.42C195.4,29.89,196.19,26.63,199,26.63Zm.1-6.48c-8.15,0-12.21,5.43-12.21,18.06,0,13.1,3.64,18.84,11.9,18.84a13.47,13.47,0,0,0,4.26-.58l6.58,4.63,4.11-5.26-5.16-3.69c1.79-3,2.58-7.57,2.58-13.79C211.14,26,207.45,20.15,199.08,20.15Z" transform="translate(-8.95 -8.32)"/><path class="cls-4" d="M225.24,20.84V45.42c0,7.31,3.16,11.63,11.37,11.63s11.68-4.32,11.68-11.58V20.84h-8.21V45.73c0,2.63-.47,4.9-3.26,4.9s-3.37-2.63-3.37-5V20.84Z" transform="translate(-8.95 -8.32)"/><path class="cls-4" d="M270.92,41.89c.85-5.21,1.69-10.84,2.06-14.26h.26c.42,3.26,1.21,9.05,2.05,14.26Zm5.43,6.84,1.26,7.63h8.47L279,20.84H267.5l-7,35.52h8.16l1.21-7.63Z" transform="translate(-8.95 -8.32)"/><polygon class="cls-5" points="292.29 48.05 300.45 48.05 300.45 19.21 307.4 19.21 307.4 12.52 285.29 12.52 285.29 19.21 292.29 19.21 292.29 48.05"/><path class="cls-5" d="M340,26.63c2.95,0,3.64,3.1,3.64,11.58,0,9-.69,12.42-3.64,12.42-2.78,0-3.57-3.69-3.57-12.42C336.4,29.89,337.19,26.63,340,26.63Zm.11-6.48c-8.16,0-12.21,5.43-12.21,18.06,0,13.1,3.63,18.84,11.89,18.84,8.85,0,12.37-5.63,12.37-18.69C352.13,26,348.45,20.15,340.08,20.15Z" transform="translate(-8.95 -8.32)"/><path class="cls-5" d="M377.71,26.63c3,0,3.63,3.1,3.63,11.58,0,9-.68,12.42-3.63,12.42-2.79,0-3.58-3.69-3.58-12.42C374.13,29.89,374.92,26.63,377.71,26.63Zm.11-6.48c-8.16,0-12.21,5.43-12.21,18.06,0,13.1,3.63,18.84,11.89,18.84,8.84,0,12.37-5.63,12.37-18.69C389.87,26,386.18,20.15,377.82,20.15Z" transform="translate(-8.95 -8.32)"/><polygon class="cls-5" points="395.34 48.05 414.02 48.05 414.76 41.42 403.5 41.42 403.5 12.52 395.34 12.52 395.34 48.05"/><path class="cls-5" d="M435.66,46.05c.15,6.05,2.78,11,11.42,11,8,0,11.42-4.69,11.42-10.58s-2.79-8.79-9.37-12.11c-3.9-1.89-4.69-2.94-4.69-5s.85-3.16,2.64-3.16c2.31,0,2.79,2.1,2.94,4.58h7.85c-.06-5.42-2.43-10.64-10.74-10.64-7.05,0-10.74,4-10.74,10.11,0,5.21,2.32,7.89,8.48,11.05,4.21,2.16,5.42,3.63,5.42,6,0,2.06-.74,3.64-3.11,3.64s-3.26-2-3.47-5Z" transform="translate(-8.95 -8.32)"/><path d="M489,40.17l.31-1.84h-7.62c.34-1.31,1.5-3.23,3.74-5.64,2.5-2.64,3.35-3.91,3.35-6.46,0-2.75-1.17-5-4.54-5s-4.67,2.61-4.7,5.33h2c.08-2.21.85-3.6,2.63-3.6,2,0,2.44,1.56,2.44,3.23,0,2.15-.74,3.12-3.12,5.75-2.92,3.2-4.22,5.75-4.25,8.08v.14Z" transform="translate(-8.95 -8.32)"/><rect x="483.15" y="27.97" width="2.1" height="3.91"/><path d="M502,23c2.1,0,2.78,2,2.78,7.56s-.57,8.08-2.81,8.08-2.81-2.78-2.81-8.13C499.15,24.92,500,23,502,23Zm.05-1.79c-3.17,0-5,2.24-5,9.35,0,6.55,1.19,9.86,4.93,9.86s4.9-3,4.9-9.83S505.42,21.24,502,21.24Z" transform="translate(-8.95 -8.32)"/></svg>